<svg id="Capa_1" enable-background="new 0 0 512 512" height="512" viewBox="0 0 512 512" width="512" xmlns="http://www.w3.org/2000/svg" xmlns:xlink="http://www.w3.org/1999/xlink"><linearGradient id="lg1"><stop offset="0" stop-color="#c5baeb"/><stop offset=".1485" stop-color="#ccc2ed"/><stop offset=".6795" stop-color="#e1dcf4"/><stop offset="1" stop-color="#e9e5f6"/></linearGradient><linearGradient id="SVGID_1_" gradientUnits="userSpaceOnUse" x1="134.969" x2="134.969" xlink:href="#lg1" y1="277.352" y2="134.354"/><linearGradient id="SVGID_2_" gradientUnits="userSpaceOnUse" x1="177.283" x2="177.283" xlink:href="#lg1" y1="252.903" y2="109.905"/><linearGradient id="SVGID_3_" gradientUnits="userSpaceOnUse" x1="219.651" x2="219.651" xlink:href="#lg1" y1="228.476" y2="85.443"/><linearGradient id="SVGID_4_" gradientUnits="userSpaceOnUse" x1="261.998" x2="261.998" xlink:href="#lg1" y1="204.006" y2="61.008"/><linearGradient id="SVGID_5_" gradientUnits="userSpaceOnUse" x1="294.203" x2="294.203" xlink:href="#lg1" y1="220.793" y2="81.507"/><linearGradient id="SVGID_6_" gradientUnits="userSpaceOnUse" x1="326.475" x2="326.475" xlink:href="#lg1" y1="237.518" y2="101.942"/><linearGradient id="SVGID_7_" gradientUnits="userSpaceOnUse" x1="358.772" x2="358.772" xlink:href="#lg1" y1="254.205" y2="122.442"/><linearGradient id="SVGID_8_" gradientUnits="userSpaceOnUse" x1="391.037" x2="391.037" xlink:href="#lg1" y1="270.93" y2="142.991"/><linearGradient id="SVGID_9_" gradientUnits="userSpaceOnUse" x1="296.153" x2="296.153" xlink:href="#lg1" y1="361.052" y2="236.847"/><linearGradient id="SVGID_10_" gradientUnits="userSpaceOnUse" x1="167.174" x2="167.174" xlink:href="#lg1" y1="294.138" y2="154.853"/><linearGradient id="SVGID_11_" gradientUnits="userSpaceOnUse" x1="199.446" x2="199.446" xlink:href="#lg1" y1="310.864" y2="175.288"/><linearGradient id="SVGID_12_" gradientUnits="userSpaceOnUse" x1="231.743" x2="231.743" xlink:href="#lg1" y1="327.551" y2="195.788"/><linearGradient id="SVGID_13_" gradientUnits="userSpaceOnUse" x1="264.009" x2="264.009" xlink:href="#lg1" y1="344.277" y2="216.336"/><linearGradient id="SVGID_14_" gradientUnits="userSpaceOnUse" x1="338.507" x2="338.507" xlink:href="#lg1" y1="336.637" y2="212.406"/><linearGradient id="SVGID_15_" gradientUnits="userSpaceOnUse" x1="380.861" x2="380.861" xlink:href="#lg1" y1="312.21" y2="187.945"/><linearGradient id="SVGID_16_" gradientUnits="userSpaceOnUse" x1="423.206" x2="423.206" xlink:href="#lg1" y1="287.761" y2="163.496"/><linearGradient id="lg2"><stop offset="0" stop-color="#ab2c37"/><stop offset=".0732" stop-color="#b32f3a"/><stop offset=".4827" stop-color="#dc3c4a"/><stop offset=".8056" stop-color="#f64453"/><stop offset="1" stop-color="#ff4757"/></linearGradient><linearGradient id="SVGID_17_" gradientUnits="userSpaceOnUse" x1="141.787" x2="134.816" xlink:href="#lg2" y1="51.215" y2="39.141"/><linearGradient id="SVGID_18_" gradientUnits="userSpaceOnUse" x1="342.889" x2="356.376" y1="283.387" y2="260.027"><stop offset="0" stop-color="#ab2c37"/><stop offset=".1357" stop-color="#ae2d38"/><stop offset=".2468" stop-color="#b8303c"/><stop offset=".3492" stop-color="#ca3643"/><stop offset=".4458" stop-color="#e13e4c"/><stop offset=".5353" stop-color="#ff4757"/><stop offset=".6499" stop-color="#ff7a85"/></linearGradient><linearGradient id="SVGID_19_" gradientUnits="userSpaceOnUse" x1="383.33" x2="350.146" xlink:href="#lg2" y1="294.166" y2="236.69"/><g><g><g><g><ellipse cx="105.789" cy="396.631" fill="#43386b" rx="20.996" ry="37.112" transform="matrix(.993 -.121 .121 .993 -47.209 15.712)"/></g></g><g><g><path d="m108.77 384.818c4.349 7.533 4.821 18.928 1.055 25.452s-10.345 5.706-14.695-1.827c-4.349-7.533-4.821-18.928-1.055-25.452 3.767-6.524 10.346-5.706 14.695 1.827z" fill="#d7d1eb"/></g></g><g><g><path d="m106.959 387.955c3.194 5.533 3.542 13.903.775 18.694-2.767 4.792-7.599 4.191-10.793-1.342s-3.541-13.903-.775-18.695 7.599-4.19 10.793 1.343z" fill="#43386b"/></g></g><g><g><path d="m107.13 390.817c2.14 3.707 2.373 9.315.519 12.526s-5.092 2.808-7.232-.899-2.373-9.315-.519-12.526 5.091-2.808 7.232.899z" fill="#d7d1eb"/></g></g></g><g><g><g><ellipse cx="241.583" cy="475.073" fill="#43386b" rx="20.996" ry="37.112" transform="matrix(.993 -.121 .121 .993 -55.701 32.717)"/></g></g><g><g><path d="m244.563 463.261c4.349 7.533 4.821 18.928 1.055 25.452s-10.345 5.706-14.695-1.828c-4.349-7.533-4.821-18.928-1.055-25.452 3.767-6.523 10.346-5.705 14.695 1.828z" fill="#d7d1eb"/></g></g><g><g><path d="m242.752 466.397c3.194 5.533 3.542 13.903.775 18.694-2.767 4.792-7.599 4.191-10.793-1.342s-3.541-13.903-.775-18.695 7.599-4.19 10.793 1.343z" fill="#43386b"/></g></g><g><g><ellipse cx="239.567" cy="475.073" fill="#d7d1eb" rx="5.049" ry="8.925" transform="matrix(.993 -.121 .121 .993 -55.719 32.475)"/></g></g></g><g><g><g><g><ellipse cx="236.023" cy="321.419" fill="#43386b" rx="20.996" ry="37.112" transform="matrix(.993 -.121 .121 .993 -37.152 30.915)"/></g></g><g><g><path d="m239.003 309.607c4.349 7.533 4.821 18.928 1.055 25.452s-10.345 5.706-14.695-1.827c-4.349-7.533-4.821-18.928-1.055-25.452 3.767-6.524 10.346-5.706 14.695 1.827z" fill="#d7d1eb"/></g></g><g><g><path d="m237.193 312.743c3.194 5.533 3.542 13.903.775 18.695s-7.599 4.191-10.793-1.342-3.541-13.903-.775-18.695 7.598-4.191 10.793 1.342z" fill="#43386b"/></g></g><g><g><ellipse cx="234.007" cy="321.419" fill="#d7d1eb" rx="5.049" ry="8.925" transform="matrix(.993 -.121 .121 .993 -37.169 30.674)"/></g></g></g><g><g><g><ellipse cx="371.816" cy="399.861" fill="#43386b" rx="20.996" ry="37.112" transform="matrix(.993 -.121 .121 .993 -45.644 47.92)"/></g></g><g><g><path d="m374.796 388.049c4.349 7.533 4.821 18.928 1.055 25.452s-10.345 5.706-14.695-1.828c-4.349-7.533-4.821-18.928-1.055-25.452 3.767-6.523 10.346-5.705 14.695 1.828z" fill="#d7d1eb"/></g></g><g><g><path d="m372.986 391.185c3.195 5.533 3.542 13.903.775 18.695s-7.599 4.191-10.793-1.342-3.541-13.903-.775-18.695 7.598-4.191 10.793 1.342z" fill="#43386b"/></g></g><g><g><path d="m373.156 394.048c2.141 3.707 2.373 9.315.519 12.526s-5.091 2.808-7.232-.899-2.373-9.315-.519-12.526 5.092-2.809 7.232.899z" fill="#d7d1eb"/></g></g></g></g><g><path d="m101.011 362.053c-2.422 0-4.777-1.256-6.074-3.504-1.935-3.351-.787-7.636 2.564-9.571l127.03-73.346c3.35-1.936 7.637-.786 9.571 2.564 1.935 3.351.787 7.636-2.564 9.571l-127.03 73.346c-1.103.637-2.309.94-3.497.94z" fill="#a996eb"/></g><g><path d="m378.049 375.362c-1.188 0-2.393-.303-3.496-.94l-150.021-86.615c-3.019-1.743-4.297-5.439-3-8.674l33.963-84.74c1.438-3.592 5.515-5.336 9.11-3.897 3.591 1.44 5.335 5.518 3.896 9.11l-31.702 79.102 144.761 83.578c3.351 1.935 4.499 6.22 2.564 9.571-1.298 2.248-3.653 3.505-6.075 3.505z" fill="#a996eb"/></g><g><path d="m251.02 448.708c-1.188 0-2.393-.303-3.496-.94l-150.023-86.615c-3.019-1.743-4.297-5.439-3-8.674l33.964-84.74c1.438-3.591 5.515-5.336 9.11-3.897 3.592 1.44 5.335 5.518 3.896 9.11l-31.704 79.102 144.762 83.579c3.351 1.935 4.499 6.219 2.564 9.571-1.296 2.248-3.651 3.504-6.073 3.504z" fill="#a996eb"/></g><g><path d="m134.969 277.352c-3.87 0-7.006-3.137-7.006-7.006v-128.986c0-3.87 3.136-7.006 7.006-7.006s7.006 3.137 7.006 7.006v128.986c0 3.87-3.136 7.006-7.006 7.006z" fill="url(#SVGID_1_)"/></g><g><path d="m364.52 312.209c-1.189 0-2.395-.303-3.499-.941l-144.876-83.732c-3.35-1.936-4.497-6.222-2.56-9.572 1.936-3.349 6.221-4.497 9.572-2.56l144.876 83.732c3.35 1.936 4.497 6.222 2.56 9.572-1.299 2.245-3.653 3.501-6.073 3.501z" fill="#c5baeb"/></g><g><path d="m322.151 336.636c-1.189 0-2.395-.303-3.499-.941l-144.874-83.731c-3.35-1.936-4.497-6.222-2.56-9.572 1.936-3.349 6.221-4.497 9.572-2.56l144.874 83.732c3.35 1.936 4.497 6.222 2.56 9.572-1.299 2.245-3.653 3.5-6.073 3.5z" fill="#c5baeb"/></g><g><path d="m335.067 398.034c-1.189 0-2.395-.303-3.499-.941l-144.874-83.732c-3.35-1.936-4.497-6.221-2.56-9.572 1.936-3.349 6.219-4.497 9.572-2.56l144.874 83.731c3.35 1.936 4.497 6.222 2.56 9.572-1.299 2.247-3.652 3.502-6.073 3.502z" fill="#a996eb"/></g><g><path d="m292.699 422.461c-1.189 0-2.395-.303-3.499-.941l-144.876-83.732c-3.35-1.936-4.497-6.222-2.56-9.572 1.936-3.349 6.221-4.498 9.572-2.56l144.876 83.732c3.35 1.936 4.497 6.222 2.56 9.572-1.298 2.246-3.652 3.501-6.073 3.501z" fill="#a996eb"/></g><g><path d="m177.283 252.903c-3.87 0-7.006-3.137-7.006-7.006v-128.986c0-3.87 3.136-7.006 7.006-7.006s7.006 3.137 7.006 7.006v128.986c0 3.87-3.136 7.006-7.006 7.006z" fill="url(#SVGID_2_)"/></g><g><path d="m219.651 228.476c-3.87 0-7.006-3.137-7.006-7.006v-129.021c0-3.87 3.136-7.006 7.006-7.006s7.006 3.137 7.006 7.006v129.021c0 3.869-3.137 7.006-7.006 7.006z" fill="url(#SVGID_3_)"/></g><g><path d="m261.998 204.006c-3.87 0-7.006-3.137-7.006-7.006v-128.986c0-3.87 3.136-7.006 7.006-7.006s7.006 3.137 7.006 7.006v128.986c0 3.869-3.136 7.006-7.006 7.006z" fill="url(#SVGID_4_)"/></g><g><path d="m290.986 220.792c-.12 0-.242-.003-.365-.01-3.864-.199-6.837-3.493-6.637-7.357l6.445-125.273c.198-3.864 3.427-6.834 7.357-6.637 3.864.199 6.837 3.493 6.637 7.357l-6.445 125.273c-.192 3.743-3.287 6.647-6.992 6.647z" fill="url(#SVGID_5_)"/></g><g><path d="m319.982 237.518c-.249 0-.499-.013-.754-.04-3.847-.412-6.633-3.864-6.221-7.712l13.003-121.561c.412-3.847 3.844-6.634 7.712-6.222 3.847.412 6.633 3.864 6.221 7.712l-13.003 121.561c-.384 3.594-3.424 6.262-6.958 6.262z" fill="url(#SVGID_6_)"/></g><g><path d="m349.07 254.205c-.379 0-.762-.031-1.148-.094-3.818-.63-6.403-4.235-5.773-8.053l19.419-117.749c.629-3.818 4.237-6.4 8.053-5.773 3.818.63 6.403 4.235 5.773 8.053l-19.419 117.749c-.566 3.431-3.537 5.867-6.905 5.867z" fill="url(#SVGID_7_)"/></g><g><path d="m378.063 270.93c-.516 0-1.04-.057-1.564-.177-3.773-.86-6.133-4.615-5.274-8.388l25.963-113.924c.859-3.773 4.614-6.133 8.388-5.274 3.773.86 6.133 4.615 5.274 8.388l-25.963 113.925c-.74 3.248-3.628 5.45-6.824 5.45z" fill="url(#SVGID_8_)"/></g><g><path d="m279.812 361.05c-1.211 0-2.421-.313-3.506-.94l-144.843-83.698c-2.166-1.252-3.5-3.565-3.5-6.068s1.336-4.815 3.503-6.066l127.038-73.346c2.169-1.252 4.84-1.251 7.009.001l144.843 83.698c2.166 1.252 3.5 3.565 3.5 6.068 0 2.502-1.336 4.815-3.503 6.066l-127.039 73.346c-1.083.626-2.293.939-3.502.939zm-130.835-90.701 130.836 75.604 113.029-65.258-130.836-75.604z" fill="#c5baeb"/></g><g><path d="m279.814 361.052c-.66 0-1.33-.094-1.995-.291-3.71-1.1-5.825-5-4.725-8.709l32.683-110.188c1.1-3.71 5-5.825 8.71-4.724 3.71 1.1 5.825 5 4.725 8.709l-32.683 110.188c-.903 3.044-3.693 5.015-6.715 5.015z" fill="url(#SVGID_9_)"/></g><g><path d="m163.956 294.138c-.12 0-.242-.003-.365-.009-3.864-.199-6.837-3.493-6.637-7.357l6.447-125.273c.198-3.863 3.457-6.836 7.357-6.637 3.864.199 6.837 3.493 6.637 7.357l-6.447 125.273c-.192 3.742-3.288 6.646-6.992 6.646z" fill="url(#SVGID_10_)"/></g><g><path d="m192.953 310.864c-.249 0-.499-.013-.754-.04-3.847-.412-6.633-3.864-6.221-7.712l13.003-121.561c.411-3.848 3.849-6.635 7.712-6.222 3.847.412 6.633 3.864 6.221 7.712l-13.003 121.561c-.384 3.594-3.424 6.262-6.958 6.262z" fill="url(#SVGID_11_)"/></g><g><path d="m222.041 327.551c-.379 0-.762-.031-1.148-.094-3.818-.63-6.403-4.235-5.773-8.053l19.419-117.749c.631-3.818 4.242-6.401 8.053-5.773 3.818.63 6.403 4.235 5.773 8.053l-19.419 117.749c-.566 3.432-3.537 5.867-6.905 5.867z" fill="url(#SVGID_12_)"/></g><g><path d="m251.034 344.276c-.516 0-1.04-.057-1.564-.177-3.773-.86-6.133-4.615-5.274-8.388l25.963-113.924c.859-3.773 4.616-6.135 8.388-5.274 3.773.86 6.133 4.615 5.274 8.388l-25.963 113.924c-.74 3.249-3.628 5.451-6.824 5.451z" fill="url(#SVGID_13_)"/></g><g><path d="m322.16 336.637c-.66 0-1.33-.094-1.995-.291-3.71-1.101-5.825-5-4.725-8.71l32.7-110.214c1.103-3.709 5.002-5.825 8.71-4.724 3.71 1.101 5.825 5 4.725 8.71l-32.7 110.214c-.905 3.044-3.693 5.015-6.715 5.015z" fill="url(#SVGID_14_)"/></g><g><path d="m364.529 312.21c-.66 0-1.329-.094-1.994-.29-3.71-1.099-5.825-4.998-4.727-8.708l32.668-110.25c1.1-3.71 4.999-5.824 8.709-4.727 3.71 1.099 5.825 4.998 4.727 8.708l-32.668 110.25c-.903 3.045-3.692 5.017-6.715 5.017z" fill="url(#SVGID_15_)"/></g><g><path d="m406.875 287.761c-.66 0-1.329-.094-1.994-.29-3.71-1.099-5.825-4.998-4.727-8.708l32.668-110.249c1.1-3.711 4.997-5.825 8.709-4.727 3.71 1.099 5.825 4.998 4.727 8.708l-32.668 110.248c-.903 3.046-3.692 5.018-6.715 5.018z" fill="url(#SVGID_16_)"/></g><g><path d="m312.495 250.862c-1.21 0-2.419-.313-3.503-.939l-177.526-102.495c-2.168-1.251-3.503-3.564-3.503-6.068 0-2.503 1.336-4.816 3.503-6.068l127.038-73.346c2.168-1.251 4.839-1.251 7.006 0l177.528 102.495c2.168 1.251 3.503 3.564 3.503 6.068 0 2.503-1.336 4.816-3.503 6.068l-127.04 73.346c-1.084.626-2.293.939-3.503.939zm-163.514-109.502 163.514 94.405 113.027-65.256-163.515-94.405z" fill="#e9e5f6"/></g><g><path d="m134.974 148.368c-2.56 0-5.028-1.408-6.261-3.851l-16.87-33.426-42.881-24.69c-2.17-1.25-3.509-3.563-3.51-6.068s1.334-4.82 3.503-6.072l126.999-73.322c2.165-1.25 4.832-1.251 6.999-.004l44.654 25.713c1.184.682 2.143 1.695 2.759 2.915l17.815 35.295c1.743 3.454.356 7.668-3.098 9.412-3.455 1.742-7.669.357-9.412-3.098l-16.871-33.427-39.339-22.652-112.977 65.228 34.167 19.672c1.184.682 2.143 1.695 2.759 2.915l17.814 35.295c1.743 3.455.356 7.668-3.098 9.412-1.013.511-2.09.753-3.152.753z" fill="#e9e5f6"/></g><g><path d="m251.034 448.708c-2.422 0-4.777-1.256-6.074-3.504-1.935-3.351-.787-7.636 2.564-9.571l127.029-73.347c3.351-1.936 7.636-.786 9.571 2.564 1.935 3.351.787 7.636-2.564 9.571l-127.03 73.347c-1.103.637-2.308.94-3.496.94z" fill="#a996eb"/></g><g><path d="m95.714 76.718c-3.391 0-6.688-1.759-8.505-4.906-2.708-4.692-1.1-10.691 3.591-13.399l82.713-47.754c4.692-2.708 10.69-1.101 13.4 3.59 2.708 4.692 1.1 10.69-3.591 13.399l-82.713 47.754c-1.545.892-3.231 1.316-4.895 1.316z" fill="url(#SVGID_17_)"/></g><g><path d="m134.974 148.368c-2.56 0-5.028-1.408-6.261-3.851l-16.87-33.426-42.881-24.69c-2.17-1.25-3.509-3.563-3.51-6.068s1.334-4.819 3.503-6.072l18.969-10.952c3.35-1.936 7.636-.786 9.571 2.564 1.935 3.351.787 7.636-2.564 9.571l-8.446 4.876 34.167 19.672c1.184.682 2.143 1.695 2.759 2.915l17.814 35.295c1.743 3.455.356 7.668-3.098 9.412-1.014.512-2.091.754-3.153.754z" fill="#e9e5f6"/></g><g><path d="m117.161 113.072c-2.421 0-4.776-1.256-6.073-3.502-1.936-3.351-.79-7.636 2.562-9.571l126.956-73.346c3.347-1.936 7.636-.789 9.571 2.562 1.936 3.351.79 7.636-2.562 9.571l-126.956 73.346c-1.103.637-2.308.94-3.498.94z" fill="#e9e5f6"/></g><g><path d="m410.964 216.19-7.531-4.346c-1.161-.734-2.692-.896-4.103-.081l-63.184 36.479c-3.216 1.857-5.597 4.876-6.653 8.436l-15.285 51.53c-.588 1.981.389 3.785 1.915 4.626l-.004.004 7.883 4.541z" fill="url(#SVGID_18_)"/><path d="m344.009 252.778 63.184-36.479c3.117-1.799 6.832 1.131 5.809 4.581l-15.284 51.53c-1.056 3.56-3.437 6.579-6.653 8.436l-63.184 36.479c-3.117 1.799-6.832-1.131-5.809-4.581l15.285-51.53c1.055-3.56 3.436-6.58 6.652-8.436z" fill="url(#SVGID_19_)"/></g></g></svg>
